<svg width="21" height="20" viewBox="0 0 21 20" fill="none" xmlns="http://www.w3.org/2000/svg">
<g id="github-fill">
<path id="Vector" d="M10.5008 1.66666C5.89665 1.66666 2.16748 5.39583 2.16748 10C2.16748 13.6875 4.5529 16.8021 7.8654 17.9062C8.28206 17.9792 8.43831 17.7292 8.43831 17.5104C8.43831 17.3125 8.4279 16.6562 8.4279 15.9583C6.33415 16.3437 5.79248 15.4479 5.62581 14.9792C5.53206 14.7396 5.12581 14 4.77165 13.8021C4.47998 13.6458 4.06331 13.2604 4.76123 13.25C5.41748 13.2396 5.88623 13.8542 6.04248 14.1042C6.79248 15.3646 7.9904 15.0104 8.46956 14.7917C8.54248 14.25 8.76123 13.8854 9.00083 13.6771C7.14665 13.4687 5.20915 12.75 5.20915 9.5625C5.20915 8.65625 5.53206 7.90625 6.06331 7.32291C5.97998 7.11458 5.68831 6.26041 6.14665 5.11458C6.14665 5.11458 6.84456 4.89583 8.43831 5.96875C9.105 5.78125 9.81333 5.6875 10.5217 5.6875C11.23 5.6875 11.9383 5.78125 12.605 5.96875C14.1987 4.88541 14.8967 5.11458 14.8967 5.11458C15.355 6.26041 15.0633 7.11458 14.98 7.32291C15.5112 7.90625 15.8342 8.64583 15.8342 9.5625C15.8342 12.7604 13.8862 13.4687 12.0321 13.6771C12.3342 13.9375 12.5946 14.4375 12.5946 15.2187C12.5946 16.3333 12.5842 17.2292 12.5842 17.5104C12.5842 17.7292 12.7404 17.9896 13.1571 17.9062C16.5492 16.7611 18.8332 13.5802 18.8342 10C18.8342 5.39583 15.105 1.66666 10.5008 1.66666Z" fill="#4338CA"/>
</g>
</svg>
