<svg width="21" height="20" viewBox="0 0 21 20" fill="none" xmlns="http://www.w3.org/2000/svg">
<g id="instagram-fill">
<path id="Vector" d="M11.3567 1.66748C12.2946 1.66903 12.7698 1.67399 13.1805 1.68621L13.3422 1.69151C13.5291 1.69815 13.7134 1.70648 13.9357 1.7169C14.8224 1.75786 15.4273 1.89815 15.9586 2.1044C16.5078 2.3162 16.9717 2.60231 17.4349 3.06551C17.8974 3.5287 18.1836 3.99398 18.3961 4.5419C18.6016 5.07245 18.7419 5.67801 18.7836 6.56481C18.7935 6.78703 18.8015 6.97136 18.8081 7.15824L18.8133 7.31997C18.8255 7.7306 18.8311 8.20591 18.8328 9.14375L18.8335 9.76516C18.8336 9.84108 18.8336 9.91942 18.8336 10.0002L18.8335 10.2353L18.833 10.8567C18.8314 11.7946 18.8265 12.2698 18.8142 12.6805L18.8089 12.8422C18.8023 13.0291 18.794 13.2134 18.7836 13.4357C18.7426 14.3224 18.6016 14.9273 18.3961 15.4586C18.1842 16.0078 17.8974 16.4717 17.4349 16.9349C16.9717 17.3974 16.5057 17.6836 15.9586 17.8961C15.4273 18.1016 14.8224 18.2419 13.9357 18.2836C13.7134 18.2935 13.5291 18.3015 13.3422 18.3081L13.1805 18.3133C12.7698 18.3255 12.2946 18.3311 11.3567 18.3328L10.7353 18.3335C10.6594 18.3336 10.5811 18.3336 10.5002 18.3336L10.2652 18.3335L9.64375 18.333C8.70591 18.3314 8.2306 18.3265 7.81997 18.3142L7.65824 18.3089C7.47136 18.3023 7.28703 18.294 7.06481 18.2836C6.17801 18.2426 5.57384 18.1016 5.0419 17.8961C4.49328 17.6842 4.0287 17.3974 3.56551 16.9349C3.10231 16.4717 2.8169 16.0057 2.6044 15.4586C2.39815 14.9273 2.25856 14.3224 2.2169 13.4357C2.207 13.2134 2.19892 13.0291 2.19238 12.8422L2.18714 12.6805C2.17495 12.2698 2.16939 11.7946 2.16759 10.8567L2.16748 9.14375C2.16903 8.20591 2.17399 7.7306 2.18621 7.31997L2.19151 7.15824C2.19815 6.97136 2.20648 6.78703 2.2169 6.56481C2.25786 5.67731 2.39815 5.07315 2.6044 4.5419C2.8162 3.99328 3.10231 3.5287 3.56551 3.06551C4.0287 2.60231 4.49398 2.3169 5.0419 2.1044C5.57315 1.89815 6.17731 1.75856 7.06481 1.7169C7.28703 1.707 7.47136 1.69892 7.65824 1.69238L7.81997 1.68714C8.2306 1.67495 8.70591 1.66939 9.64375 1.66759L11.3567 1.66748ZM10.5002 5.83356C8.19781 5.83356 6.33356 7.69984 6.33356 10.0002C6.33356 12.3027 8.19984 14.1669 10.5002 14.1669C12.8027 14.1669 14.6669 12.3006 14.6669 10.0002C14.6669 7.69781 12.8006 5.83356 10.5002 5.83356ZM10.5002 7.50023C11.881 7.50023 13.0002 8.61908 13.0002 10.0002C13.0002 11.381 11.8813 12.5002 10.5002 12.5002C9.1195 12.5002 8.00023 11.3813 8.00023 10.0002C8.00023 8.6195 9.11908 7.50023 10.5002 7.50023ZM14.8752 4.58356C14.3008 4.58356 13.8336 5.05015 13.8336 5.62452C13.8336 6.19889 14.3002 6.6662 14.8752 6.6662C15.4496 6.6662 15.9169 6.19961 15.9169 5.62452C15.9169 5.05015 15.4488 4.58284 14.8752 4.58356Z" fill="#4338CA"/>
</g>
</svg>
