<svg width="21" height="20" viewBox="0 0 21 20" fill="none" xmlns="http://www.w3.org/2000/svg">
<g id="linkedin-box-fill">
<path id="Vector" d="M15.7801 15.2825H13.5588V11.8018C13.5588 10.9718 13.542 9.90375 12.4013 9.90375C11.2432 9.90375 11.0663 10.8069 11.0663 11.7406V15.2825H8.84508V8.125H10.9788V9.10058H11.0076C11.3057 8.53808 12.0307 7.94437 13.1138 7.94437C15.3645 7.94437 15.7807 9.42567 15.7807 11.3538L15.7801 15.2825ZM6.33636 7.14562C5.62136 7.14562 5.04698 6.56687 5.04698 5.855C5.04698 5.14375 5.62198 4.56563 6.33636 4.56563C7.04886 4.56563 7.62636 5.14375 7.62636 5.855C7.62636 6.56687 7.04823 7.14562 6.33636 7.14562ZM7.45011 15.2825H5.22261V8.125H7.45011V15.2825ZM16.8913 2.5H4.10761C3.49573 2.5 3.00073 2.98375 3.00073 3.58063V16.4194C3.00073 17.0168 3.49573 17.5 4.10761 17.5H16.8895C17.5007 17.5 18.0007 17.0168 18.0007 16.4194V3.58063C18.0007 2.98375 17.5007 2.5 16.8895 2.5H16.8913Z" fill="#4338CA"/>
</g>
</svg>
